Coordinates
version=1
nRows=17
nColumns=38
inDegrees=yes

Units are S.I. units (second, meters, Newtons, ...)
Angles are in degrees.

endheader
time	pelvis_tilt	pelvis_list	pelvis_rotation	pelvis_tx	pelvis_ty	pelvis_tz	hip_flexion_r	hip_adduction_r	hip_rotation_r	knee_angle_r	ankle_angle_r	subtalar_angle_r	mtp_angle_r	hip_flexion_l	hip_adduction_l	hip_rotation_l	knee_angle_l	ankle_angle_l	subtalar_angle_l	mtp_angle_l	lumbar_extension	lumbar_bending	lumbar_rotation	arm_flex_r	arm_add_r	arm_rot_r	elbow_flex_r	pro_sup_r	wrist_flex_r	wrist_dev_r	arm_flex_l	arm_add_l	arm_rot_l	elbow_flex_l	pro_sup_l	wrist_flex_l	wrist_dev_l
      7.95000000	      1.12784538	      0.09319128	    -11.44986062	     -0.04955368	      0.88580291	      2.55179495	     22.00830393	     -2.45858094	      3.61732627	    -59.64208398	      5.90119984	      0.00000000	      0.00000000	      2.50149722	      2.78576795	    -10.87253980	    -10.81582240	      3.31473099	      0.00000000	      0.00000000	     -8.76552618	      3.57407445	     -9.94191788	     11.25318653	     -7.75049297	    -14.89468291	      5.18629458	    106.57246920	      0.00000000	      0.00000000	    -17.60760493	    -13.03129040	     11.41726793	     23.41837523	     77.97976149	      0.00000000	      0.00000000
      7.96000000	      0.97962669	     -0.03507008	    -11.38894036	     -0.05119136	      0.88614359	      2.55115765	     22.89079364	     -2.27991813	      2.97823789	    -58.33138456	      6.30431536	      0.00000000	      0.00000000	      1.96539501	      2.76451869	    -10.96167393	    -10.42187589	      3.32932554	      0.00000000	      0.00000000	     -8.75934325	      3.80287368	    -10.22654294	     10.95492162	     -8.01961811	    -16.56513408	      4.69158465	    107.11798210	      0.00000000	      0.00000000	    -17.15858857	    -13.59161621	     11.03224175	     23.87007389	     78.50664621	      0.00000000	      0.00000000
      7.97000000	      0.82577775	     -0.13124178	    -11.29250630	     -0.05287387	      0.88634628	      2.55055345	     23.70780002	     -2.15206008	      2.31541923	    -56.77142347	      6.56202160	      0.00000000	      0.00000000	      1.48332903	      2.76371417	    -11.02827591	    -10.09560085	      3.34071176	      0.00000000	      0.00000000	     -8.74445788	      3.97829314	    -10.53585522	     10.63070678	     -8.25348635	    -17.84082526	      4.34128205	    107.72457532	      0.00000000	      0.00000000	    -16.61733293	    -14.15324465	     10.49162695	     24.25276991	     79.36850610	      0.00000000	      0.00000000
      7.98000000	      0.68025471	     -0.21907594	    -11.17266031	     -0.05446482	      0.88642297	      2.55000158	     24.42236716	     -2.04711148	      1.65422473	    -54.95925443	      6.63273295	      0.00000000	      0.00000000	      1.02324789	      2.76763878	    -11.07951799	     -9.82324914	      3.35568579	      0.00000000	      0.00000000	     -8.72985311	      4.12743858	    -10.84516465	     10.27032329	     -8.45320727	    -18.71266123	      4.11185233	    108.36281931	      0.00000000	      0.00000000	    -15.99687275	    -14.71275961	      9.84976419	     24.59164428	     80.50488671	      0.00000000	      0.00000000
      7.99000000	      0.55772541	     -0.31917364	    -11.03209317	     -0.05604676	      0.88648144	      2.54951552	     25.00533003	     -1.93755457	      1.01267370	    -52.90572034	      6.49048357	      0.00000000	      0.00000000	      0.55849569	      2.75771549	    -11.11791081	     -9.58345699	      3.37765234	      0.00000000	      0.00000000	     -8.72849717	      4.28015983	    -11.14008744	      9.87018863	     -8.61897498	    -19.19194104	      3.97853901	    108.98981539	      0.00000000	      0.00000000	    -15.30070902	    -15.27354317	      9.15632651	     24.90425743	     81.85027546	      0.00000000	      0.00000000
      8.00000000	      0.46361324	     -0.44290904	    -10.86850921	     -0.05766333	      0.88655063	      2.54910973	     25.44625019	     -1.80593965	      0.39976432	    -50.63053908	      6.13323366	      0.00000000	      0.00000000	      0.07358086	      2.71798793	    -11.14263939	     -9.35880587	      3.40798401	      0.00000000	      0.00000000	     -8.74915416	      4.45374485	    -11.41670073	      9.43465272	     -8.75130509	    -19.30972842	      3.91956056	    109.55497845	      0.00000000	      0.00000000	    -14.52363839	    -15.83852862	      8.44940207	     25.20164350	     83.33671733	      0.00000000	      0.00000000
      8.01000000	      0.38851876	     -0.58937600	    -10.68464351	     -0.05925658	      0.88665434	      2.54881500	     25.75331759	     -1.65100634	     -0.18129747	    -48.15724519	      5.58767701	      0.00000000	      0.00000000	     -0.43185995	      2.64587979	    -11.15119687	     -9.14351578	      3.44657362	      0.00000000	      0.00000000	     -8.79066013	      4.64505248	    -11.67185238	      8.97607025	     -8.85405977	    -19.11254630	      3.92066144	    110.00823402	      0.00000000	      0.00000000	    -13.66267058	    -16.40642378	      7.75403356	     25.49006290	     84.89541507	      0.00000000	      0.00000000
      8.02000000	      0.31981466	     -0.74419367	    -10.49186897	     -0.06081307	      0.88681760	      2.54862150	     25.95000750	     -1.48271862	     -0.72810423	    -45.50436191	      4.90699037	      0.00000000	      0.00000000	     -0.94268047	      2.55829187	    -11.14155784	     -8.94249838	      3.49140620	      0.00000000	      0.00000000	     -8.84125545	      4.83436998	    -11.89446532	      8.51328634	     -8.93560749	    -18.65601817	      3.97756895	    110.30830351	      0.00000000	      0.00000000	    -12.72427582	    -16.97468576	      7.08507844	     25.77365974	     86.45840305	      0.00000000	      0.00000000
      8.03000000	      0.25387904	     -0.88533053	    -10.30717734	     -0.06241102	      0.88693044	      2.54844396	     26.06468291	     -1.31335820	     -1.23381285	    -42.68251706	      4.15790219	      0.00000000	      0.00000000	     -1.43721207	      2.48147323	    -11.11436928	     -8.76377810	      3.53849396	      0.00000000	      0.00000000	     -8.88436046	      4.99868279	    -12.07091566	      8.05848309	     -9.00365152	    -17.99944598	      4.08969452	    110.42798019	      0.00000000	      0.00000000	    -11.71850870	    -17.54093059	      6.45289069	     26.05883775	     87.96051289	      0.00000000	      0.00000000
      8.04000000	      0.18881299	     -0.99696150	    -10.14237999	     -0.06412143	      0.88692385	      2.54828198	     26.10994374	     -1.15275183	     -1.68520751	    -39.70766325	      3.40131232	      0.00000000	      0.00000000	     -1.90443203	      2.43231842	    -11.07442315	     -8.61090493	      3.58334990	      0.00000000	      0.00000000	     -8.90569488	      5.12184356	    -12.19436875	      7.60658602	     -9.05944225	    -17.20174732	      4.25287075	    110.35584275	      0.00000000	      0.00000000	    -10.65018817	    -18.10204376	      5.86865745	     26.35424269	     89.34123381	      0.00000000	      0.00000000
      8.05000000	      0.12100799	     -1.07605398	     -9.99441520	     -0.06589872	      0.88684536	      2.54823202	     26.07832666	     -1.00360420	     -2.06972384	    -36.61074915	      2.67720970	      0.00000000	      0.00000000	     -2.35296707	      2.41190955	    -11.03026645	     -8.47902758	      3.62313970	      0.00000000	      0.00000000	     -8.89863198	      5.19535238	    -12.26399863	      7.14159645	     -9.09886758	    -16.31795871	      4.45952240	    110.09561562	      0.00000000	      0.00000000	     -9.51969614	    -18.65569628	      5.34710296	     26.66316665	     90.54705061	      0.00000000	      0.00000000
      8.06000000	      0.05474120	     -1.12717114	     -9.85094336	     -0.06757539	      0.88669110	      2.54831449	     25.96140154	     -0.86186472	     -2.38579294	    -33.43180746	      2.00034259	      0.00000000	      0.00000000	     -2.80291519	      2.41326656	    -10.99067576	     -8.35545327	      3.65755776	      0.00000000	      0.00000000	     -8.86516245	      5.21568675	    -12.27934128	      6.65070254	     -9.11843751	    -15.39646469	      4.70243321	    109.66413879	      0.00000000	      0.00000000	     -8.32785565	    -19.20209330	      4.90701455	     26.97758616	     91.53498133	      0.00000000	      0.00000000
      8.07000000	     -0.00063019	     -1.15552251	     -9.70352974	     -0.06911519	      0.88645703	      2.54851774	     25.76401685	     -0.72610239	     -2.64648051	    -30.21383725	      1.36387786	      0.00000000	      0.00000000	     -3.27301077	      2.43012886	    -10.95930671	     -8.22562082	      3.68747654	      0.00000000	      0.00000000	     -8.81055318	      5.18325717	    -12.23946921	      6.13029732	     -9.11992971	    -14.47757088	      4.97524187	    109.08842431	      0.00000000	      0.00000000	     -7.07742660	    -19.74153976	      4.57036292	     27.28173192	     92.27629228	      0.00000000	      0.00000000
      8.08000000	     -0.04145118	     -1.16181835	     -9.55222045	     -0.07063899	      0.88619535	      2.54887698	     25.50261791	     -0.60235040	     -2.87708541	    -27.00455789	      0.74602718	      0.00000000	      0.00000000	     -3.77215125	      2.45924825	    -10.93104296	     -8.07983900	      3.71263732	      0.00000000	      0.00000000	     -8.73670657	      5.10111923	    -12.14532428	      5.58227545	     -9.11110181	    -13.59339041	      5.26952515	    108.40232570	      0.00000000	      0.00000000	     -5.77422397	    -20.26973557	      4.35945973	     27.56084988	     92.75855213	      0.00000000	      0.00000000
      8.09000000	     -0.07279013	     -1.14388866	     -9.40020723	     -0.07210293	      0.88590487	      2.54940048	     25.19902799	     -0.49889480	     -3.11030546	    -23.85843992	      0.11779876	      0.00000000	      0.00000000	     -4.29792080	      2.50063693	    -10.89328187	     -7.91671925	      3.73064204	      0.00000000	      0.00000000	     -8.64020216	      4.97309188	    -12.00093546	      5.01119986	     -9.10046851	    -12.76824130	      5.57350880	    107.64354904	      0.00000000	      0.00000000	     -4.42649531	    -20.77674404	      4.29170697	     27.80857298	     92.98530351	      0.00000000	      0.00000000
      8.10000000	     -0.10395176	     -1.10173741	     -9.24704381	     -0.07330517	      0.88552901	      2.55003299	     24.87902718	     -0.41888630	     -3.37950320	    -20.83198644	     -0.54908181	      0.00000000	      0.00000000	     -4.84152264	      2.55663387	    -10.83170358	     -7.74310052	      3.73808284	      0.00000000	      0.00000000	     -8.51700065	      4.80375965	    -11.81379474	      4.42670824	     -9.08910032	    -12.01925696	      5.87427612	    106.85133977	      0.00000000	      0.00000000	     -3.03928243	    -21.25251671	      4.37320559	     28.02995051	     92.97380827	      0.00000000	      0.00000000
      8.11000000	     -0.13904597	     -1.03769643	     -9.08620795	     -0.07428307	      0.88504332	      2.55072600	     24.57143285	     -0.35838327	     -3.71168514	    -17.97638077	     -1.27484826	      0.00000000	      0.00000000	     -5.38986984	      2.62550028	    -10.73646063	     -7.57002696	      3.73254820	      0.00000000	      0.00000000	     -8.36998199	      4.59830457	    -11.59374901	      3.84725410	     -9.07085466	    -11.35760030	      6.16148429	    106.06463127	      0.00000000	      0.00000000	     -1.61165779	    -21.69360803	      4.59457769	     28.23843163	     92.75188370	      0.00000000	      0.00000000
